<svg fill="none" height="800" viewBox="0 0 16 16" width="800" xmlns="http://www.w3.org/2000/svg"><g clip-rule="evenodd" fill="#000" fillRule="evenodd"><path d="m7.734 4.192c-1.162-.79-2.734.042-2.734 1.448v4.722c0 1.405 1.572 2.237 2.734 1.447l3.472-2.36a1.75 1.75 0 0 0 0-2.895l-3.472-2.36zm-1.234 1.448c0-.2.225-.32.39-.206l3.472 2.36a.25.25 0 0 1 0 .414l-3.471 2.36a.25.25 0 0 1 -.391-.206v-4.723z"/><path d="m7.25 0a1.75 1.75 0 0 0 -1.75 1.728 6.715 6.715 0 0 0 -.167.07 1.75 1.75 0 0 0 -2.46.015l-1.06 1.06a1.75 1.75 0 0 0 -.015 2.46 6.712 6.712 0 0 0 -.07.167 1.75 1.75 0 0 0 -1.728 1.75v1.5c0 .96.772 1.738 1.728 1.75l.07.167a1.75 1.75 0 0 0 .015 2.46l1.06 1.06a1.75 1.75 0 0 0 2.46.015l.167.07a1.75 1.75 0 0 0 1.75 1.728h1.5a1.75 1.75 0 0 0 1.75-1.728l.167-.07a1.75 1.75 0 0 0 2.46-.015l1.06-1.06a1.75 1.75 0 0 0 .015-2.46l.07-.167a1.75 1.75 0 0 0 1.728-1.75v-1.5a1.75 1.75 0 0 0 -1.728-1.75 6.185 6.185 0 0 0 -.07-.167 1.75 1.75 0 0 0 -.015-2.46l-1.06-1.06a1.75 1.75 0 0 0 -2.46-.015 6.794 6.794 0 0 0 -.167-.07 1.75 1.75 0 0 0 -1.75-1.728zm-.25 1.75a.25.25 0 0 1 .25-.25h1.5a.25.25 0 0 1 .25.25v.51c0 .33.216.62.532.717.326.1.64.23.936.388a.75.75 0 0 0 .884-.131l.36-.36a.25.25 0 0 1 .354 0l1.06 1.06a.25.25 0 0 1 0 .354l-.36.36a.75.75 0 0 0 -.131.884c.158.296.289.61.388.936a.75.75 0 0 0 .718.532h.509a.25.25 0 0 1 .25.25v1.5a.25.25 0 0 1 -.25.25h-.51a.75.75 0 0 0 -.717.532c-.1.326-.23.64-.388.936a.75.75 0 0 0 .131.884l.36.36a.25.25 0 0 1 0 .354l-1.06 1.06a.25.25 0 0 1 -.354 0l-.36-.36a.75.75 0 0 0 -.884-.131c-.296.158-.61.289-.936.388a.75.75 0 0 0 -.532.718v.509a.25.25 0 0 1 -.25.25h-1.5a.25.25 0 0 1 -.25-.25v-.51a.75.75 0 0 0 -.532-.717c-.326-.1-.64-.23-.936-.388a.75.75 0 0 0 -.884.131l-.36.36a.25.25 0 0 1 -.354 0l-1.06-1.06a.25.25 0 0 1 0-.354l.36-.36a.75.75 0 0 0 .131-.884 5.213 5.213 0 0 1 -.388-.936.75.75 0 0 0 -.718-.532h-.509a.25.25 0 0 1 -.25-.25v-1.5a.25.25 0 0 1 .25-.25h.51a.75.75 0 0 0 .717-.532c.1-.326.23-.64.388-.936a.75.75 0 0 0 -.131-.884l-.36-.36a.25.25 0 0 1 0-.354l1.06-1.06a.25.25 0 0 1 .354 0l.36.36a.75.75 0 0 0 .884.131c.296-.158.61-.289.936-.388a.75.75 0 0 0 .532-.718z"/></g></svg>